# xmcd
#
# Track frame offsets:
#   150
#   17721
#   34558
#   53298
#   65287
#   79566
#   91261
#   119608
#   128538
#   151602
#   177336
#   191399
#   204902
#   220092
#   241569
#   255635
#   274163
#   295819
#
# Disc length: 4188 seconds
#
# Revision: 0
# Processed by: cddbd v1.5.2PL0 Copyright (c) Steve Scherf et al.
# Submitted via: uFREEDB ActiveX Control 1.5
#
DISCID=dc105a12
DTITLE=ministry of  sound - ministry of sound
DYEAR=1900
DGENRE=Dance
TTITLE0=1. Tempramentals
TTITLE1=2. X Press 2 Feat. Kurt Wagner
TTITLE2=3. Basement Jaxx
TTITLE3=4. Porno
TTITLE4=5. FreeMasons Fet. Amanda Wilson
TTITLE5=6. Future Funk
TTITLE6=7. De´Lacy
TTITLE7=8. Digital Dog
TTITLE8=9. Bob Sinclair Feat. Gary Nesta Pine
TTITLE9=10. Eric Prydz vs. Steve Angello
TTITLE10=11. Stone Bridge feat. Therese
TTITLE11=12. Studio B
TTITLE12=13. Tom Novy Feat. Michael Marshall
TTITLE13=14. Lee Cabrera Feat. Mim
TTITLE14=15. Steve Mac vs . Mosquito Feat. Steve Smith
TTITLE15=16. Uniting Nations
TTITLE16=17. Mint Royale
TTITLE17=18. Fallen Angels
EXTD=
EXTT0=
EXTT1=
EXTT2=
EXTT3=
EXTT4=
EXTT5=
EXTT6=
EXTT7=
EXTT8=
EXTT9=
EXTT10=
EXTT11=
EXTT12=
EXTT13=
EXTT14=
EXTT15=
EXTT16=
EXTT17=
PLAYORDER=
